<svg xmlns="http://www.w3.org/2000/svg" viewBox="0 0 16 16"><path style="stroke:none;fill-rule:nonzero;fill:#d41443;fill-opacity:1" d="M5.961.352C2.234 1.46 0 4.352 0 8c0 2.984 1.555 5.59 4.113 6.89 1.328.669 1.524.192.293-.73-.875-.7-1.039-1.016-1.039-2.191 0-.824-.191-1.492-.484-1.746-.582-.477-.649-1.715-.067-2.157.227-.191.454-.828.489-1.398.16-2.094 2.46-4.063 4.761-4.063 2.297 0 4.598 1.97 4.758 4.063.035.57.262 1.207.489 1.398.582.442.515 1.68-.067 2.157-.289.254-.484.921-.484 1.746 0 1.176-.164 1.492-1.035 2.191-1.364 1.047-.973 1.43.546.508C14.414 13.368 16 10.543 16 8.035 16 3.02 10.687-1.047 5.961.352Zm0 0"/><path style="stroke:none;fill-rule:nonzero;fill:#d41443;fill-opacity:1" d="M6.379 4.035c-.582.254-1.067.57-1.067.762 0 .348 1.75.984 2.754.984s2.75-.636 2.75-.984c0-.383-2.008-1.238-2.816-1.238-.324.03-1.07.222-1.621.476ZM4.535 6c-.098.129-.195.543-.195.953 0 .73.031.73 3.726.73 3.692 0 3.723 0 3.723-.73 0-1.078-.293-1.207-1.328-.7-1.164.606-3.629.606-4.793 0C5.148 6 4.664 5.907 4.535 6Zm-.941 2.828c-.516.54.36.762 2.883.762h2.722v1.11c0 .605.16 1.112.324 1.112.192 0 .325-.476.325-1.082 0-1.047.062-1.109 1.293-1.207.714-.062 1.296-.254 1.296-.41 0-.351-8.484-.636-8.843-.285Zm0 0"/><path style="stroke:none;fill-rule:nonzero;fill:#d41443;fill-opacity:1" d="M4.34 11.621c0 1.746.617 2.094 3.726 2.094s3.723-.348 3.723-2.094c0-.762-.16-1.078-.484-1.078-.293 0-.489.285-.489.762 0 1.777-2.46 1.933-2.816.187-.16-.918-.258-.949-1.91-.949H4.34Zm2.008 3.586c.195 1.016 3.5.922 3.5-.063 0-.347-.422-.476-1.817-.476-1.52 0-1.781.094-1.683.539Zm0 0"/></svg>