<svg xmlns="http://www.w3.org/2000/svg" viewBox="0 0 16 16">
  <path style="stroke:none;fill-rule:nonzero;fill:#d41443;fill-opacity:1" d="M5.961.3516C2.2343 1.4609 0 4.3516 0 8c0 2.9844 1.5547 5.5898 4.1133 6.8906 1.3281.668 1.5234.1914.293-.7304-.875-.6993-1.0391-1.0157-1.0391-2.1914 0-.8243-.1914-1.4922-.4844-1.7461-.582-.4766-.6484-1.7149-.0664-2.1563.2266-.1914.4531-.8281.4883-1.3984.1601-2.0938 2.461-4.0625 4.7617-4.0625 2.2969 0 4.5977 1.9687 4.7578 4.0625.0352.5703.2617 1.207.4883 1.3984.582.4414.5156 1.6797-.0664 2.1563-.289.2539-.4844.9218-.4844 1.746 0 1.1758-.164 1.4922-1.0351 2.1915-1.3633 1.0468-.9727 1.4296.5468.5078C14.4141 13.3672 16 10.543 16 8.0352c0-5.0157-5.3125-9.082-10.039-7.6836Zm0 0"/>
  <path style="stroke:none;fill-rule:nonzero;fill:#d41443;fill-opacity:1" d="M6.379 4.0352c-.5821.2539-1.0665.5703-1.0665.7617 0 .3476 1.75.9844 2.754.9844 1.0038 0 2.75-.6368 2.75-.9844 0-.3828-2.008-1.2383-2.8165-1.2383-.3242.0312-1.0703.2226-1.621.4766ZM4.5352 6c-.0977.129-.1954.543-.1954.9531 0 .7305.0313.7305 3.7266.7305 3.6914 0 3.7227 0 3.7227-.7305 0-1.0781-.293-1.207-1.3282-.6992-1.164.6055-3.6289.6055-4.793 0C5.1485 6 4.6642 5.9063 4.5353 6ZM3.5938 8.8281c-.5157.539.3593.7617 2.8828.7617h2.7226v1.1094c0 .6055.1602 1.1133.3242 1.1133.1914 0 .3243-.4766.3243-1.082 0-1.047.0625-1.1094 1.293-1.207.7148-.0626 1.2968-.254 1.2968-.4102 0-.3516-8.4844-.6367-8.8438-.2852Zm0 0"/>
  <path style="stroke:none;fill-rule:nonzero;fill:#d41443;fill-opacity:1" d="M4.3398 11.621c0 1.7462.6172 2.0938 3.7266 2.0938s3.7227-.3476 3.7227-2.0937c0-.7617-.1602-1.0781-.4844-1.0781-.293 0-.4883.2851-.4883.7617 0 1.7773-2.461 1.9336-2.8164.1875-.1602-.918-.2578-.9492-1.9102-.9492h-1.75ZM6.3477 15.207c.1953 1.0157 3.5.922 3.5-.0625 0-.3476-.422-.4765-1.8164-.4765-1.5196 0-1.7813.0937-1.6836.539Zm0 0"/>
</svg>
